<?xml version="1.0" encoding="UTF-8" standalone="no"?>
<svg
   xmlns:dc="http://purl.org/dc/elements/1.1/"
   xmlns:cc="http://creativecommons.org/ns#"
   xmlns:rdf="http://www.w3.org/1999/02/22-rdf-syntax-ns#"
   xmlns:svg="http://www.w3.org/2000/svg"
   xmlns="http://www.w3.org/2000/svg"
   xmlns:sodipodi="http://sodipodi.sourceforge.net/DTD/sodipodi-0.dtd"
   xmlns:inkscape="http://www.inkscape.org/namespaces/inkscape"
   width="210mm"
   height="297mm"
   viewBox="0 0 210 297"
   version="1.1"
   id="svg8"
   inkscape:version="1.0.2-2 (e86c870879, 2021-01-15)"
   sodipodi:docname="serveur_toque_blanche.svg">
  <defs
     id="defs2" />
  <sodipodi:namedview
     id="base"
     pagecolor="#ffffff"
     bordercolor="#666666"
     borderopacity="1.0"
     inkscape:pageopacity="0.0"
     inkscape:pageshadow="2"
     inkscape:zoom="1.4"
     inkscape:cx="261.24742"
     inkscape:cy="303.02262"
     inkscape:document-units="mm"
     inkscape:current-layer="layer1"
     inkscape:document-rotation="0"
     showgrid="false"
     inkscape:window-width="1438"
     inkscape:window-height="1040"
     inkscape:window-x="78"
     inkscape:window-y="0"
     inkscape:window-maximized="0" />
  <metadata
     id="metadata5">
    <rdf:RDF>
      <cc:Work
         rdf:about="">
        <dc:format>image/svg+xml</dc:format>
        <dc:type
           rdf:resource="http://purl.org/dc/dcmitype/StillImage" />
        <dc:title></dc:title>
      </cc:Work>
    </rdf:RDF>
  </metadata>
  <g
     inkscape:label="Calque 1"
     inkscape:groupmode="layer"
     id="layer1">
    <g
       id="path863"
       style="opacity:1;stroke:#000000;stroke-opacity:1;fill:#ffffff;fill-opacity:0;stroke-width:1.8;stroke-miterlimit:4;stroke-dasharray:none">
      <path
         style="color:#000000;font-style:normal;font-variant:normal;font-weight:normal;font-stretch:normal;font-size:medium;line-height:normal;font-family:sans-serif;font-variant-ligatures:normal;font-variant-position:normal;font-variant-caps:normal;font-variant-numeric:normal;font-variant-alternates:normal;font-variant-east-asian:normal;font-feature-settings:normal;font-variation-settings:normal;text-indent:0;text-align:start;text-decoration:none;text-decoration-line:none;text-decoration-style:solid;text-decoration-color:#000000;letter-spacing:normal;word-spacing:normal;text-transform:none;writing-mode:lr-tb;direction:ltr;text-orientation:mixed;dominant-baseline:auto;baseline-shift:baseline;text-anchor:start;white-space:normal;shape-padding:0;shape-margin:0;inline-size:0;clip-rule:nonzero;display:inline;overflow:visible;visibility:visible;isolation:auto;mix-blend-mode:normal;color-interpolation:sRGB;color-interpolation-filters:linearRGB;solid-color:#000000;solid-opacity:1;vector-effect:none;fill:#ffffff;fill-opacity:0;fill-rule:nonzero;stroke:#000000;stroke-width:1.8;stroke-linecap:butt;stroke-linejoin:miter;stroke-miterlimit:4;stroke-dasharray:none;stroke-dashoffset:0;stroke-opacity:1;color-rendering:auto;image-rendering:auto;shape-rendering:auto;text-rendering:auto;enable-background:accumulate;stop-color:#000000;stop-opacity:1"
         d="m 57.095631,30.971119 c -4.621389,0.740833 -9.595556,4.515556 -11.606389,8.784167 -0.564445,1.199445 -1.234723,3.316111 -1.481667,4.656667 l -0.458611,2.469445 -1.552223,-0.211667 c -4.1275,-0.564445 -9.525,1.411111 -12.805834,4.691945 -9.348611,9.383889 -4.1275,25.082501 9.06639,27.269724 2.2225,0.388055 5.785556,0.105833 7.584722,-0.599723 0.352778,-0.141111 2.928056,2.434167 7.690556,7.584723 l 7.16139,7.761112 1.375833,-2.116667 c 0.740834,-1.164167 2.681111,-3.4925 4.268612,-5.150556 6.208889,-6.491112 14.252223,-10.265834 23.212779,-10.936112 2.963333,-0.211667 3.139722,-0.282222 2.998611,-0.987778 -0.07055,-0.423333 -0.740833,-4.303889 -1.446389,-8.643056 l -1.27,-7.866945 1.411111,-1.481667 c 7.47889,-7.655278 3.033889,-20.743334 -7.655278,-22.471945 -3.386667,-0.529167 -7.196667,0.352777 -9.736667,2.328333 l -1.128889,0.846667 -1.552223,-1.5875 C 69.231188,33.33473 65.38591,31.42973 62.387298,30.935841 59.81202,30.547785 59.776742,30.547785 57.095631,30.971119 Z"
         id="path918" />
      <path
         style="color:#000000;font-style:normal;font-variant:normal;font-weight:normal;font-stretch:normal;font-size:medium;line-height:normal;font-family:sans-serif;font-variant-ligatures:normal;font-variant-position:normal;font-variant-caps:normal;font-variant-numeric:normal;font-variant-alternates:normal;font-variant-east-asian:normal;font-feature-settings:normal;font-variation-settings:normal;text-indent:0;text-align:start;text-decoration:none;text-decoration-line:none;text-decoration-style:solid;text-decoration-color:#000000;letter-spacing:normal;word-spacing:normal;text-transform:none;writing-mode:lr-tb;direction:ltr;text-orientation:mixed;dominant-baseline:auto;baseline-shift:baseline;text-anchor:start;white-space:normal;shape-padding:0;shape-margin:0;inline-size:0;clip-rule:nonzero;display:inline;overflow:visible;visibility:visible;isolation:auto;mix-blend-mode:normal;color-interpolation:sRGB;color-interpolation-filters:linearRGB;solid-color:#000000;solid-opacity:1;vector-effect:none;fill:#ffffff;fill-opacity:0;fill-rule:nonzero;stroke:#000000;stroke-linecap:butt;stroke-linejoin:miter;stroke-miterlimit:4;stroke-dasharray:none;stroke-dashoffset:0;stroke-opacity:1;color-rendering:auto;image-rendering:auto;shape-rendering:auto;text-rendering:auto;enable-background:accumulate;stop-color:#000000;stop-opacity:1;stroke-width:1.8"
         d="M 59.78125 30.630859 C 59.114043 30.635274 58.434317 30.741456 57.09375 30.953125 C 52.465068 31.695127 47.48656 35.472917 45.472656 39.748047 C 44.907098 40.949858 44.237609 43.065308 43.990234 44.408203 L 43.535156 46.861328 L 42 46.652344 C 37.864981 46.08687 32.462905 48.064439 29.177734 51.349609 C 24.498799 56.046201 23.46603 62.324299 25.253906 67.701172 C 27.041783 73.078045 31.650615 77.553774 38.253906 78.648438 C 40.48098 79.037291 44.04261 78.75669 45.847656 78.048828 C 45.863693 78.042414 45.89232 78.042959 45.929688 78.054688 C 45.967055 78.066416 46.01429 78.088032 46.070312 78.121094 C 46.182357 78.187218 46.329383 78.296557 46.511719 78.447266 C 46.87639 78.748684 47.38006 79.216751 48.021484 79.851562 C 49.304332 81.121185 51.138362 83.053716 53.519531 85.628906 L 60.697266 93.40625 L 62.083984 91.269531 C 62.823048 90.108146 64.764801 87.780331 66.351562 86.123047 C 72.557553 79.634965 80.596308 75.861375 89.552734 75.191406 C 91.034515 75.085565 91.818994 75.016716 92.220703 74.882812 C 92.421558 74.815861 92.528855 74.730388 92.574219 74.615234 C 92.619582 74.500081 92.601834 74.360731 92.566406 74.183594 C 92.495752 73.759632 91.826633 69.88008 91.121094 65.541016 L 89.851562 57.681641 L 91.257812 56.207031 C 98.746167 48.542066 94.294055 35.435806 83.591797 33.705078 C 80.200183 33.175138 76.386536 34.057867 73.841797 36.037109 L 72.724609 36.875 L 71.183594 35.298828 C 69.239125 33.319004 65.394028 31.412647 62.390625 30.917969 C 61.102974 30.723939 60.448457 30.626445 59.78125 30.630859 z M 59.78125 30.666016 C 60.445779 30.661611 61.097138 30.759099 62.384766 30.953125 C 65.378587 31.446225 69.222118 33.350977 71.158203 35.322266 L 72.722656 36.921875 L 73.863281 36.064453 C 76.398542 34.092583 80.204218 33.21184 83.585938 33.740234 C 94.262014 35.466728 98.701848 48.53605 91.232422 56.181641 L 89.814453 57.669922 L 91.085938 65.546875 C 91.79151 69.886144 92.462758 73.766749 92.533203 74.189453 C 92.568331 74.365094 92.581642 74.498434 92.541016 74.601562 C 92.500389 74.704691 92.405005 74.784269 92.208984 74.849609 C 91.816944 74.98029 91.032334 75.050425 89.550781 75.15625 C 80.586096 75.826837 72.53796 79.603514 66.326172 86.097656 C 64.737931 87.756485 62.797292 90.085004 62.054688 91.251953 L 60.691406 93.349609 L 53.544922 85.603516 C 51.163591 83.02815 49.330486 81.09655 48.046875 79.826172 C 47.40507 79.190983 46.899443 78.722636 46.533203 78.419922 C 46.350083 78.268565 46.202809 78.157665 46.087891 78.089844 C 46.030431 78.055933 45.980892 78.032538 45.939453 78.019531 C 45.898014 78.006524 45.863998 78.004401 45.835938 78.015625 C 44.042652 78.718875 40.477692 79.000538 38.259766 78.613281 C 31.669167 77.520722 27.071108 73.054664 25.287109 67.689453 C 23.503111 62.324242 24.533449 56.062297 29.203125 51.375 C 32.479623 48.098502 37.87416 46.124083 41.994141 46.6875 L 43.5625 46.900391 L 44.025391 44.416016 C 44.271904 43.077799 44.942528 40.960751 45.505859 39.763672 C 47.513622 35.501579 52.48356 31.727945 57.097656 30.988281 C 58.4382 30.776616 59.116721 30.670421 59.78125 30.666016 z "
         id="path920" />
    </g>
    <path
       d="m 87.610911,78.455011 c -13.476112,2.151944 -23.918335,11.500556 -27.199168,24.341669 -1.058334,4.1275 -1.199445,10.40694 -0.352778,14.42861 2.610555,12.31195 11.782778,21.87222 24.059446,25.04722 3.175,0.81139 3.951111,0.88195 8.784167,0.74084 6.0325,-0.17639 8.748892,-0.81139 13.405552,-3.06917 8.5725,-4.1275 15.55751,-12.84111 17.49778,-21.87222 0.21167,-0.9525 0.42334,-1.76389 0.49389,-1.76389 0.0353,0 0.70556,0.24694 1.44639,0.56444 1.79917,0.74084 4.7625,0.52917 7.02028,-0.56444 2.18722,-1.05833 5.57389,-4.40972 7.90222,-7.86695 0.98778,-1.48166 1.79917,-2.78694 1.79917,-2.92805 0,-0.10584 -0.88195,0.59972 -1.94028,1.55222 -5.00944,4.58611 -10.51278,6.06778 -14.46389,3.84528 -1.37583,-0.77611 -1.41111,-0.84667 -1.62278,-3.28084 -0.14111,-1.37583 -0.35277,-2.99861 -0.49389,-3.59833 -0.21166,-1.05833 -0.17638,-1.12889 0.77612,-1.12889 1.23472,0 3.59833,-1.09361 4.40972,-1.97555 0.88194,-1.023059 1.69333,-3.104448 1.69333,-4.445004 0,-0.599722 -0.3175,-1.799167 -0.74083,-2.645833 -1.76389,-3.598334 -7.33778,-4.480278 -9.98361,-1.5875 -0.635,0.740833 -0.635,0.705555 -2.64584,-1.834445 C 113.04619,84.910844 107.08425,81.065566 100.13452,79.2664 97.171189,78.490288 90.150911,78.031677 87.610911,78.455011 Z"
       id="path865"
       style="fill:#000000;stroke:none;stroke-width:0.0352778" />
    <path
       d="m 151.64008,91.3314 c -2.01083,1.375834 -2.64583,2.540001 -2.64583,4.833056 0,2.434167 0.84666,3.774723 3.66889,5.856114 2.89278,2.08139 3.06916,4.37444 0.59972,7.37305 l -1.23472,1.51695 1.37583,1.34055 1.34056,1.30528 1.41111,-1.79917 c 1.97555,-2.50472 2.68111,-4.51555 2.43416,-6.91444 -0.24694,-2.50472 -1.12888,-3.88056 -3.77472,-5.926667 -1.69333,-1.340556 -2.11667,-1.869722 -2.11667,-2.645833 0,-1.093612 0.56445,-1.834445 1.41112,-1.834445 0.56444,0 1.41111,-1.975556 1.41111,-3.316111 0,-0.881945 -2.46945,-0.740834 -3.88056,0.211666 z"
       id="path867"
       style="fill:#000000;stroke:none;stroke-width:0.0352778" />
    <path
       d="m 160.8123,91.225567 c -1.5875,0.846667 -2.82222,2.963334 -2.82222,4.903611 0,2.081389 0.35278,2.681112 3.38667,5.538612 2.32833,2.25778 2.61055,2.64583 2.61055,3.84528 0,1.51694 -0.38805,2.36361 -1.83444,4.05694 l -1.05833,1.16417 1.16416,1.19944 c 0.635,0.67028 1.34056,1.19945 1.51695,1.19945 0.59972,-0.0353 2.78694,-2.99861 3.45722,-4.65667 1.37583,-3.4925 0.67028,-5.67972 -2.92806,-9.136944 -1.51694,-1.481666 -2.78694,-2.786944 -2.78694,-2.892778 0,-0.881944 0.81139,-2.010833 1.41111,-2.010833 0.74083,0 1.27,-0.917222 1.65806,-2.928056 0.17639,-0.917222 0.14111,-0.9525 -1.16417,-0.9525 -0.77611,0 -1.94028,0.282222 -2.61056,0.670278 z"
       id="path869"
       style="fill:#000000;stroke:none;stroke-width:0.0352778" />
    <path
       d="m 142.82064,116.0964 c 0,0.635 0.10583,1.69334 0.21166,2.29306 l 0.24695,1.09361 h 16.47472 c 14.2875,0 16.54528,-0.0706 16.72167,-0.52917 0.10583,-0.28222 0.28222,-1.30528 0.42333,-2.29305 l 0.24695,-1.76389 h -17.18028 -17.145 z"
       id="path871"
       style="fill:#000000;stroke:none;stroke-width:0.0352778" />
    <path
       d="m 25.522018,117.40168 c -0.776111,0.21167 -2.681111,0.45861 -4.233333,0.635 -3.03389,0.28222 -4.021667,0.67028 -5.538612,2.08139 -2.328333,2.15194 -0.493889,3.63361 5.362223,4.23333 5.820833,0.635 9.701389,2.61056 17.95639,9.10167 2.046111,1.62278 4.056944,2.99861 4.515555,3.13972 1.975556,0.49389 6.103056,-1.72861 6.84389,-3.63361 1.128889,-2.99861 2.751667,-5.715 4.268611,-7.23194 1.799167,-1.79917 1.940278,-2.43417 0.776111,-3.59834 -0.811389,-0.81139 -2.398889,-0.635 -5.150556,0.52917 -3.915833,1.65805 -4.903611,1.51694 -11.077222,-1.51695 -7.337779,-3.63361 -10.442223,-4.48027 -13.723057,-3.73944 z"
       id="path873"
       style="fill:#000000;stroke:none;stroke-width:0.0352778" />
    <path
       d="m 144.23175,121.1764 c 0,1.12889 5.00944,6.77334 6.0325,6.77334 0.17639,0 0.3175,0.14111 0.3175,0.35277 0,0.21167 -1.37584,0.35278 -3.42195,0.35278 -9.87777,0 -23.03639,1.62278 -23.03639,2.8575 0,2.50472 34.81917,4.23334 53.26945,2.64584 11.57111,-1.02306 17.99167,-1.94028 17.99167,-2.64584 0,-1.23472 -13.0175,-2.8575 -22.82472,-2.8575 -3.35139,0 -4.58612,-0.35278 -2.96334,-0.88194 0.88195,-0.28223 4.72722,-4.30389 5.46806,-5.75028 l 0.59972,-1.12889 h -15.73389 c -8.64306,0 -15.69861,0.14111 -15.69861,0.28222 z"
       id="path875"
       style="fill:#000000;stroke:none;stroke-width:0.0352778" />
    <path
       d="m 142.00925,135.21696 c -0.14111,0.14111 -0.24695,0.635 -0.24695,1.05833 0,0.59972 0.49389,1.12889 1.86973,2.01084 2.18722,1.41111 5.78555,5.22111 6.73805,7.16138 1.48167,2.96334 3.95111,4.72723 6.6675,4.72723 1.44639,0 1.905,-0.24695 5.67972,-3.28084 6.31473,-5.08 7.09084,-5.43277 11.95917,-6.06777 2.29306,-0.28223 4.30389,-0.59973 4.48028,-0.70556 0.49389,-0.3175 0.42333,-1.48167 -0.14111,-2.61056 -0.91722,-1.76388 -1.83445,-1.94027 -10.12472,-2.08138 l -7.65528,-0.10584 -2.18722,1.09361 c -2.92806,1.48167 -4.58612,1.51695 -6.91445,0.10584 -1.5875,-0.9525 -2.18722,-1.09361 -5.82083,-1.34056 -2.2225,-0.10583 -4.1275,-0.10583 -4.30389,0.0353 z"
       id="path877"
       style="fill:#000000;stroke:none;stroke-width:0.0352778" />
    <path
       d="m 39.103963,136.62807 c 0,0.10583 -1.023055,3.59833 -2.293055,7.72583 -2.645834,8.78417 -5.044723,17.56834 -5.185834,18.97945 l -0.105833,1.02305 12.7,4.12751 12.700001,4.1275 -0.105833,21.76639 -0.105833,21.76639 h 9.136945 9.172222 l 1.869723,2.89277 c 2.645833,4.05695 6.914445,12.62945 9.101667,18.20334 1.023056,2.61055 1.799167,4.79778 1.693333,4.86833 -0.07055,0.10584 -1.058333,-0.0705 -2.151944,-0.35278 -9.948334,-2.61055 -18.203335,1.19945 -22.789446,10.4775 -0.987778,1.97556 -1.869722,4.12751 -1.975556,4.72723 l -0.211666,1.16416 h 42.192226 42.19222 v -0.88194 c 0,-1.72861 -0.81139,-4.65667 -1.86972,-6.63222 -2.75167,-5.22111 -9.10167,-8.21973 -18.30917,-8.67834 l -4.48027,-0.21166 6.70277,-12.77056 6.73806,-12.80583 h 6.985 6.985 l -0.17639,-4.69195 c -0.35278,-10.97139 -1.41111,-20.77861 -3.06917,-28.18694 l -0.81138,-3.52778 3.21027,0.21166 c 1.76389,0.10584 4.90361,0.28223 6.94973,0.42334 l 3.73944,0.21166 0.42333,-2.75166 c 0.35278,-2.61056 1.44639,-15.13417 1.97556,-22.75417 l 0.24694,-3.38667 -1.76388,0.35278 c -2.15195,0.45861 -4.40973,-0.10583 -6.49112,-1.5875 -0.77611,-0.59972 -1.55222,-0.91722 -1.69333,-0.74083 -0.14111,0.14111 -1.09361,2.64583 -2.11667,5.57389 -1.02305,2.89277 -1.94027,5.36222 -1.97555,5.3975 -0.0353,0.0705 -2.75167,-0.38806 -6.0325,-0.98778 l -5.92667,-1.16417 -2.57528,-2.75167 c -3.95111,-4.23333 -8.74889,-7.12611 -13.29972,-8.07861 -0.77611,-0.14111 -3.31611,-0.70555 -5.64445,-1.23472 -15.34583,-3.38667 -30.303608,-3.77472 -40.040276,-0.98778 -2.963333,0.84667 -6.561667,2.8575 -8.713611,4.86834 l -1.905,1.83444 -6.420556,-1.09361 -6.420556,-1.12889 0.141111,-6.10306 0.141111,-6.13833 -0.846667,0.24695 c -3.175,0.88194 -5.891389,0.67027 -7.866945,-0.67028 -1.340555,-0.91722 -1.622778,-1.02306 -1.622778,-0.67028 z"
       id="path879"
       style="fill:#000000;stroke:none;stroke-width:0.0352778" />
    <path
       style="fill:none;stroke:#000000;stroke-width:1.8;stroke-linecap:butt;stroke-linejoin:miter;stroke-opacity:1;stroke-miterlimit:4;stroke-dasharray:none"
       d="M 45.73512,78.241073 C 46.68006,69.169644 67.739955,53.523903 89.851562,57.681641"
       id="path849"
       sodipodi:nodetypes="cc" />
    <path
       style="fill:none;stroke:#000000;stroke-width:1.8;stroke-linecap:butt;stroke-linejoin:miter;stroke-opacity:1;stroke-miterlimit:4;stroke-dasharray:none"
       d="M 43.5625,46.90039 57.263394,63.499999"
       id="path851"
       sodipodi:nodetypes="cc" />
    <path
       style="fill:none;stroke:#000000;stroke-width:1.8;stroke-linecap:butt;stroke-linejoin:miter;stroke-opacity:1;stroke-miterlimit:4;stroke-dasharray:none"
       d="m 72.724607,36.875 1.358725,20.766368"
       id="path853" />
  </g>
</svg>
